<svg width="40" height="40" viewBox="0 0 40 40" fill="none" xmlns="http://www.w3.org/2000/svg">
<path opacity="0.8" d="M20 40C31.0457 40 40 31.0457 40 20C40 8.9543 31.0457 0 20 0C8.9543 0 0 8.9543 0 20C0 31.0457 8.9543 40 20 40Z" fill="#213842"/>
<path fill-rule="evenodd" clip-rule="evenodd" d="M15.0974 27.3168V24.1825H9.80078V20.7258H15.0974V12.5879H23.3966C26.7122 12.7817 29.1335 16.6569 25.4706 19.0983C29.9876 21.5923 26.9757 27.3168 23.3966 27.3168H15.0974Z" fill="#188DBE"/>
<path fill-rule="evenodd" clip-rule="evenodd" d="M22.2555 15.4775C24.4039 16.5347 23.3979 18.1654 22.085 18.4475H18.7988V15.4775H22.2555ZM22.7814 20.8439H18.9821V24.1828H22.5923C24.0323 23.865 25.1375 22.0406 22.7814 20.8439Z" fill="#1B3B4C"/>
</svg>
