<svg width="26" height="26" viewBox="0 0 26 26" fill="none" xmlns="http://www.w3.org/2000/svg">
<g clip-path="url(#clip0_54940_32471)">
<path opacity="0.8" fill-rule="evenodd" clip-rule="evenodd" d="M13 0C20.1802 0 26 5.81979 26 13C26 20.1802 20.1802 26 13 26C5.81979 26 0 20.1802 0 13C0 5.81979 5.81979 0 13 0Z" fill="#AC852F"/>
<path d="M7.1444 13L7.15378 16.4375L10.0746 18.1562V20.1687L5.4444 17.4531V11.9948L7.1444 13ZM7.1444 9.56249V11.5656L5.44336 10.5594V8.55624L7.1444 7.54999L8.85378 8.55624L7.1444 9.56249ZM11.2944 8.55624L12.9954 7.54999L14.7048 8.55624L12.9954 9.56249L11.2944 8.55624Z" fill="white"/>
<path d="M8.37305 15.725V13.7125L10.0741 14.7187V16.7219L8.37305 15.725ZM11.2939 18.8771L12.9949 19.8833L14.7043 18.8771V20.8802L12.9949 21.8864L11.2939 20.8802V18.8771ZM17.1439 8.55624L18.8449 7.54999L20.5543 8.55624V10.5594L18.8449 11.5656V9.56249L17.1439 8.55624ZM18.8449 16.4375L18.8543 13L20.5553 11.9937V17.4521L15.9251 20.1677V18.1552L18.8449 16.4375Z" fill="white"/>
<path d="M17.6268 15.725L15.9258 16.7219V14.7188L17.6268 13.7125V15.725Z" fill="white"/>
<path d="M17.6251 10.275L17.6345 12.2875L14.7053 14.0062V17.4521L13.0043 18.4489L11.3033 17.4521V14.0062L8.37409 12.2875V10.275L10.0824 9.26873L12.9939 10.9958L15.923 9.26873L17.6324 10.275H17.6251ZM8.37305 6.83853L12.9949 4.11353L17.6251 6.83853L15.9241 7.84477L12.9949 6.11769L10.0741 7.84477L8.37305 6.83853Z" fill="white"/>
</g>
<defs>
<clipPath id="clip0_54940_32471">
<rect width="26" height="26" fill="white"/>
</clipPath>
</defs>
</svg>
