<svg width="40" height="40" viewBox="0 0 40 40" fill="none" xmlns="http://www.w3.org/2000/svg">
<path opacity="0.8" d="M20 40C31.0457 40 40 31.0457 40 20C40 8.9543 31.0457 0 20 0C8.9543 0 0 8.9543 0 20C0 31.0457 8.9543 40 20 40Z" fill="#493722"/>
<path fill-rule="evenodd" clip-rule="evenodd" d="M28.6158 16.6271C28.0385 16.1518 27.2869 15.9139 26.361 15.9136C27.3236 15.0459 27.5614 13.9213 27.0746 12.5395C26.9019 12.0375 26.6551 11.6266 26.3338 11.3063C26.0123 10.986 25.6298 10.7594 25.185 10.6267C24.7405 10.4936 24.2757 10.4239 23.7915 10.4166C23.3071 10.4094 22.7637 10.4519 22.1617 10.5443L21.4289 7.60535L19.7084 8.03433L20.4208 10.8916C20.1228 10.9659 19.6704 11.0869 19.0635 11.2548L18.3453 8.37419L16.6245 8.80323L17.3572 11.7422C17.1133 11.8113 16.753 11.9053 16.2763 12.0242L13.9046 12.603L14.3815 14.5157L15.6217 14.2064C16.1878 14.0653 16.5852 14.247 16.8139 14.7515L17.6484 18.0987C17.723 18.0801 17.7835 18.0692 17.8302 18.0659L17.6513 18.1104L18.8202 22.7985C18.8595 23.2098 18.693 23.462 18.3205 23.5549L17.0804 23.8641L17.2661 26.0848L19.5008 25.5276C19.6424 25.4923 19.8476 25.4432 20.1168 25.3798C20.3859 25.3169 20.5874 25.2687 20.7215 25.2353L21.463 28.2091L23.1841 27.78L22.4513 24.8411C22.7661 24.7711 23.2214 24.6616 23.8173 24.513L24.5471 27.4402L26.2678 27.0112L25.5263 24.0373C26.1295 23.8539 26.6569 23.6608 27.1083 23.4571C27.56 23.2534 27.9792 23.0066 28.3656 22.7161C28.752 22.4258 29.0565 22.1082 29.2791 21.7636C29.5019 21.4193 29.6556 21.0133 29.7412 20.5459C29.8262 20.0787 29.8262 19.5626 29.7405 18.9975C29.5684 17.8928 29.1933 17.1026 28.6158 16.6271ZM19.6203 13.3454L19.6204 13.3453L20.5131 16.9256C20.5504 16.9163 20.6792 16.8864 20.9001 16.8354C21.1208 16.7844 21.294 16.7412 21.4197 16.7058C21.5453 16.6704 21.7296 16.6161 21.9726 16.5431C22.2156 16.4702 22.415 16.3977 22.5712 16.3257C22.7272 16.2539 22.9084 16.1633 23.1144 16.0541C23.3205 15.9449 23.4834 15.8279 23.6025 15.7033C23.7218 15.5787 23.8337 15.4392 23.9376 15.2852C24.0415 15.1313 24.105 14.9565 24.1272 14.761C24.1496 14.5654 24.1336 14.3588 24.0793 14.141C24.0154 13.8845 23.9121 13.6687 23.7694 13.4937C23.6271 13.3186 23.4728 13.1836 23.3066 13.0888C23.1407 12.9939 22.9349 12.9296 22.6889 12.896C22.4434 12.8622 22.2223 12.8492 22.0265 12.8568C21.8306 12.8644 21.5938 12.8904 21.3162 12.9348C21.0383 12.9793 20.8199 13.0235 20.6607 13.0672C20.5015 13.1111 20.3014 13.165 20.0602 13.2294C19.8193 13.2937 19.6727 13.3323 19.6204 13.3453L19.6204 13.3453L19.6203 13.3453L19.6203 13.3454ZM26.1412 20.6508C26.2199 20.4907 26.2722 20.3124 26.2986 20.1158C26.3248 19.9192 26.3108 19.7124 26.2565 19.4945C26.1867 19.2145 26.0688 18.9796 25.9026 18.7899C25.7366 18.6 25.5544 18.4558 25.3555 18.3564C25.1567 18.2574 24.9128 18.1922 24.6243 18.161C24.3354 18.1297 24.0737 18.1187 23.8386 18.1276C23.6033 18.1368 23.319 18.1706 22.9857 18.2292C22.6519 18.2874 22.392 18.34 22.2058 18.3865C22.0195 18.4329 21.7803 18.4964 21.488 18.5776C21.1956 18.6589 21.0196 18.7068 20.9601 18.7217L21.943 22.6637C22.0026 22.6488 22.1408 22.6165 22.3578 22.5662C22.5748 22.5162 22.7542 22.4737 22.8957 22.4384C23.0372 22.4031 23.2332 22.348 23.4836 22.2734C23.734 22.1985 23.9479 22.1287 24.1255 22.0637C24.3033 21.9986 24.5073 21.9129 24.738 21.8057C24.9682 21.6986 25.1615 21.5929 25.3174 21.4877C25.473 21.3828 25.6298 21.2572 25.7869 21.1105C25.9442 20.9641 26.0623 20.8107 26.1412 20.6508Z" fill="#F7931A"/>
<path fill-rule="evenodd" clip-rule="evenodd" d="M19.9992 36.9233C29.3456 36.9233 36.9223 29.3466 36.9223 20.0002C36.9223 10.6539 29.3456 3.07715 19.9992 3.07715C10.6529 3.07715 3.07617 10.6539 3.07617 20.0002C3.07617 29.3466 10.6529 36.9233 19.9992 36.9233Z" stroke="#F7931A" stroke-width="1.38125"/>
</svg>
