<svg width="26" height="26" viewBox="0 0 26 26" fill="none" xmlns="http://www.w3.org/2000/svg">
<path opacity="0.8" d="M13 26C20.1797 26 26 20.1797 26 13C26 5.8203 20.1797 0 13 0C5.8203 0 0 5.8203 0 13C0 20.1797 5.8203 26 13 26Z" fill="#435188"/>
<path d="M13.4062 3.25V10.4569L19.4976 13.1788L13.4062 3.25Z" fill="white" fill-opacity="0.602"/>
<path d="M13.4046 3.25L7.3125 13.1788L13.4046 10.4569V3.25Z" fill="white"/>
<path d="M13.4062 17.849V22.7459L19.5016 14.313L13.4062 17.849Z" fill="white" fill-opacity="0.602"/>
<path d="M13.4046 22.7459V17.8482L7.3125 14.313L13.4046 22.7459Z" fill="white"/>
<path d="M13.4062 16.7153L19.4976 13.1785L13.4062 10.4583V16.7153Z" fill="white" fill-opacity="0.2"/>
<path d="M7.3125 13.1785L13.4046 16.7153V10.4583L7.3125 13.1785Z" fill="white" fill-opacity="0.602"/>
</svg>
