<svg width="26" height="26" viewBox="0 0 26 26" fill="none" xmlns="http://www.w3.org/2000/svg">
<path opacity="0.8" d="M13 26C20.1797 26 26 20.1797 26 13C26 5.8203 20.1797 0 13 0C5.8203 0 0 5.8203 0 13C0 20.1797 5.8203 26 13 26Z" fill="#292330"/>
<g clip-path="url(#clip0_54940_32469)">
<path d="M16.0625 11.1875C15.8438 11.0625 15.5625 11.0625 15.3125 11.1875L13.5625 12.2188L12.375 12.875L10.6562 13.9063C10.4375 14.0313 10.1562 14.0313 9.90625 13.9063L8.5625 13.0938C8.34375 12.9688 8.1875 12.7188 8.1875 12.4375V10.875C8.1875 10.625 8.3125 10.375 8.5625 10.2188L9.90625 9.4375C10.125 9.3125 10.4062 9.3125 10.6562 9.4375L12 10.25C12.2188 10.375 12.375 10.625 12.375 10.9063V11.9375L13.5625 11.25V10.1875C13.5625 9.9375 13.4375 9.6875 13.1875 9.53125L10.6875 8.0625C10.4688 7.9375 10.1875 7.9375 9.9375 8.0625L7.375 9.5625C7.125 9.6875 7 9.9375 7 10.1875V13.125C7 13.375 7.125 13.625 7.375 13.7813L9.90625 15.25C10.125 15.375 10.4062 15.375 10.6562 15.25L12.375 14.25L13.5625 13.5625L15.2812 12.5625C15.5 12.4375 15.7812 12.4375 16.0312 12.5625L17.375 13.3438C17.5938 13.4688 17.75 13.7188 17.75 14V15.5625C17.75 15.8125 17.625 16.0625 17.375 16.2188L16.0625 17C15.8438 17.125 15.5625 17.125 15.3125 17L13.9688 16.2188C13.75 16.0938 13.5938 15.8438 13.5938 15.5625V14.5625L12.4062 15.25V16.2813C12.4062 16.5313 12.5312 16.7813 12.7812 16.9375L15.3125 18.4062C15.5312 18.5312 15.8125 18.5312 16.0625 18.4062L18.5938 16.9375C18.8125 16.8125 18.9688 16.5625 18.9688 16.2813V13.3125C18.9688 13.0625 18.8438 12.8125 18.5938 12.6563L16.0625 11.1875Z" fill="#8247E5"/>
</g>
<defs>
<clipPath id="clip0_54940_32469">
<rect width="12" height="10.4688" fill="white" transform="translate(7 8)"/>
</clipPath>
</defs>
</svg>
