<svg width="17" height="17" viewBox="0 0 17 17" fill="none" xmlns="http://www.w3.org/2000/svg">
<g clip-path="url(#clip0_54918_42886)">
<path d="M7.99621 15.5378C12.1688 15.5378 15.5256 12.181 15.5256 8.00839C15.5256 3.83581 12.1688 0.478973 7.99621 0.478973C3.82363 0.478973 0.466797 3.83581 0.466797 8.00839C0.466797 12.181 3.82363 15.5378 7.99621 15.5378Z" fill="#2775CA"/>
<path d="M10.0671 9.20041C10.0671 8.10239 9.40831 7.72592 8.09068 7.56908C7.14951 7.44357 6.96128 7.19261 6.96128 6.75334C6.96128 6.31408 7.27503 6.0318 7.90244 6.0318C8.46714 6.0318 8.78089 6.22003 8.93772 6.69062C8.96912 6.78474 9.06324 6.84746 9.15735 6.84746H9.65926C9.78477 6.84746 9.87889 6.75334 9.87889 6.6279V6.5965C9.75337 5.90628 9.18868 5.37297 8.46714 5.31025V4.55731C8.46714 4.43179 8.37303 4.33767 8.21619 4.30627H7.74561C7.62009 4.30627 7.52598 4.40039 7.49458 4.55731V5.27885C6.55342 5.40437 5.9574 6.0318 5.9574 6.81614C5.9574 7.85144 6.58482 8.25923 7.90244 8.41614C8.78089 8.57298 9.06324 8.76122 9.06324 9.26321C9.06324 9.76519 8.62398 10.1103 8.02796 10.1103C7.21223 10.1103 6.92988 9.76512 6.83577 9.29453C6.80445 9.16909 6.71033 9.10629 6.61621 9.10629H6.08284C5.9574 9.10629 5.86328 9.20041 5.86328 9.32593V9.35733C5.98872 10.1416 6.4907 10.7063 7.52598 10.8632V11.6162C7.52598 11.7416 7.6201 11.8357 7.77693 11.8671H8.24751C8.37303 11.8671 8.46714 11.773 8.49854 11.6162V10.8632C9.4397 10.7063 10.0671 10.0475 10.0671 9.20041Z" fill="white"/>
<path d="M6.39636 12.4947C3.9493 11.6163 2.69438 8.88694 3.60423 6.4712C4.07482 5.15355 5.11011 4.14966 6.39636 3.67907C6.52188 3.61635 6.5846 3.52223 6.5846 3.36532V2.92613C6.5846 2.80061 6.52188 2.70649 6.39636 2.67517C6.36496 2.67517 6.30224 2.67517 6.27085 2.70649C3.29048 3.64767 1.65908 6.81635 2.60026 9.79671C3.16496 11.5536 4.51401 12.9026 6.27085 13.4673C6.39636 13.53 6.52188 13.4673 6.5532 13.3418C6.5846 13.3105 6.5846 13.2791 6.5846 13.2163V12.7771C6.5846 12.683 6.49048 12.5575 6.39636 12.4947ZM9.72188 2.70649C9.59636 2.64377 9.47085 2.70649 9.43952 2.83201C9.40813 2.86341 9.40813 2.89473 9.40813 2.95752V3.39671C9.40813 3.52223 9.50224 3.64767 9.59636 3.71047C12.0434 4.58885 13.2983 7.31826 12.3885 9.73399C11.9179 11.0516 10.8826 12.0555 9.59636 12.5261C9.47085 12.5888 9.40813 12.683 9.40813 12.8399V13.2791C9.40813 13.4046 9.47085 13.4987 9.59636 13.53C9.62776 13.53 9.69048 13.53 9.72188 13.4987C12.7022 12.5575 14.3336 9.38885 13.3925 6.40848C12.8278 4.62024 11.4473 3.2712 9.72188 2.70649Z" fill="white"/>
</g>
<defs>
<clipPath id="clip0_54918_42886">
<rect width="16" height="16" fill="white" transform="translate(0.117188 0.0175781)"/>
</clipPath>
</defs>
</svg>
