<svg width="26" height="26" viewBox="0 0 26 26" fill="none" xmlns="http://www.w3.org/2000/svg">
<path opacity="0.8" d="M13 26C20.1797 26 26 20.1797 26 13C26 5.8203 20.1797 0 13 0C5.8203 0 0 5.8203 0 13C0 20.1797 5.8203 26 13 26Z" fill="#333333"/>
<path fill-rule="evenodd" clip-rule="evenodd" d="M6.50913 7.69529C7.12052 7.68892 7.73129 7.68892 8.34205 7.69465C8.34205 9.42294 8.32818 11.1512 8.32692 12.8795C8.33386 13.434 8.34835 14.0438 8.69691 14.5041C8.98622 14.8796 9.48479 14.9853 9.93167 14.9859C10.3678 14.9872 10.8557 14.9045 11.1582 14.5569C11.486 14.166 11.5585 13.6288 11.556 13.1335C11.5585 11.3199 11.5465 9.50697 11.5446 7.69338C12.156 7.69019 12.7668 7.69019 13.3782 7.69338C13.3757 9.50824 13.3668 11.3231 13.3624 13.1386C13.3599 14.0387 13.184 15.026 12.5172 15.6785C11.8377 16.3431 10.8418 16.5048 9.93294 16.5182C9.04169 16.4991 8.0685 16.3406 7.39975 15.6925C6.89551 15.2291 6.67049 14.5448 6.57594 13.8815C6.4606 12.6752 6.52111 11.4612 6.51039 10.2505C6.52174 9.39875 6.50976 8.54702 6.50913 7.69529Z" fill="white"/>
<path fill-rule="evenodd" clip-rule="evenodd" d="M15.9825 10.267C16.3607 9.92897 16.8712 9.76664 17.3729 9.78574C17.99 9.75964 18.6247 9.95634 19.0836 10.3822C19.4586 10.7457 19.5765 11.2925 19.6004 11.7979C19.6067 12.8279 19.5884 13.8579 19.6143 14.8872C19.6092 15.3532 19.6162 15.8198 19.6155 16.2864C19.0457 16.2909 18.4759 16.2902 17.9062 16.2864C17.9036 14.8815 17.9194 13.4766 17.9011 12.0723C17.8891 11.705 17.6547 11.3345 17.2935 11.2333C16.8825 11.1187 16.3997 11.1486 16.0524 11.4198C15.7694 11.6509 15.6219 12.0188 15.5873 12.3779C15.552 13.6796 15.5835 14.9833 15.5766 16.2858C15.02 16.2902 14.4628 16.2928 13.9062 16.2851C13.9151 15.1781 13.9151 14.0705 13.9189 12.9635C13.9308 11.9577 13.9107 10.9513 13.9126 9.94488C14.4483 9.94425 14.9847 9.94106 15.5205 9.94679C15.5154 10.2447 15.5123 10.5426 15.5129 10.8405C15.6623 10.6438 15.7978 10.4331 15.9825 10.267Z" fill="white"/>
<path fill-rule="evenodd" clip-rule="evenodd" d="M7.75919 17.9314C7.84239 17.9327 7.92622 17.9346 8.01005 17.9365C8.02013 18.3369 8.00059 18.7379 8.01887 19.1383C8.02644 19.3268 8.1443 19.5477 8.35356 19.5521C8.57921 19.5967 8.85466 19.498 8.89247 19.2415C8.92399 18.8086 8.89689 18.3732 8.90508 17.9397C8.98891 17.9365 9.07274 17.9333 9.15657 17.9314C9.16161 18.3496 9.17107 18.7685 9.14838 19.1861C9.13892 19.4592 8.94353 19.7221 8.67187 19.7724C8.42416 19.8207 8.12413 19.8029 7.94387 19.6024C7.7844 19.4458 7.75793 19.2071 7.75667 18.9945C7.75415 18.6399 7.75099 18.2853 7.75919 17.9314Z" fill="white"/>
<path fill-rule="evenodd" clip-rule="evenodd" d="M11.7989 17.9282C11.7189 17.932 11.6395 17.9371 11.5594 17.9429C11.5613 18.0276 11.5608 18.1124 11.5603 18.1972V18.1972C11.5591 18.4002 11.5579 18.6031 11.589 18.8048C11.451 18.4954 11.0892 18.2809 10.7614 18.4171C10.3492 18.5743 10.2824 19.1339 10.452 19.491C10.6001 19.8309 11.081 19.8876 11.3501 19.6667C11.4169 19.6031 11.4628 19.5229 11.5085 19.4432C11.525 19.4145 11.5414 19.3858 11.5588 19.358C11.5594 19.4885 11.5663 19.619 11.5846 19.7482C11.6089 19.7479 11.6453 19.7477 11.6817 19.7475C11.7181 19.7474 11.7545 19.7472 11.7787 19.7469L11.804 19.6202C11.9823 19.8386 12.3378 19.8449 12.5269 19.6381C12.7419 19.3783 12.8162 18.9544 12.6183 18.6679C12.627 18.6616 12.636 18.6544 12.6452 18.647C12.6968 18.6054 12.7551 18.5584 12.8194 18.6335C12.8272 18.7561 12.8228 18.8804 12.8185 19.0048V19.0048C12.8102 19.2421 12.8019 19.4796 12.878 19.7055C13.0204 19.7749 13.1938 19.8061 13.3154 19.6794C13.5297 19.8742 13.8714 19.794 14.0529 19.5922C14.1182 19.8103 14.3248 19.7782 14.5124 19.7491C14.5712 19.74 14.6281 19.7311 14.6781 19.7304C14.6807 19.6304 14.6783 19.5298 14.676 19.4291C14.6713 19.2291 14.6667 19.0288 14.7002 18.8328C14.7601 18.6253 14.9901 18.5883 15.1717 18.631C15.1814 18.6476 15.1924 18.6641 15.2036 18.6806C15.2401 18.735 15.2777 18.7909 15.2719 18.8602C15.2766 19.0301 15.2759 19.1999 15.2751 19.3699V19.37V19.37C15.2746 19.4943 15.2741 19.6186 15.2757 19.7431L15.3935 19.7453L15.5083 19.7475C15.5057 19.6287 15.508 19.5095 15.5104 19.3902C15.515 19.1516 15.5196 18.9128 15.4856 18.6768C15.4061 18.3191 14.8868 18.3044 14.6907 18.5686C14.6832 18.4247 14.5729 18.4031 14.4531 18.405C14.4373 18.6378 14.4395 18.8713 14.4417 19.1048V19.1048V19.1048C14.4433 19.2716 14.4449 19.4384 14.4399 19.605L14.3683 19.5843L14.2968 19.5636C14.2744 19.4247 14.2793 19.2831 14.2842 19.1416C14.2906 18.9562 14.297 18.7711 14.242 18.5934C14.0296 18.3025 13.4843 18.3102 13.2946 18.6253L13.2774 18.5469C13.2683 18.5052 13.2586 18.4609 13.2524 18.433C13.1856 18.4216 13.1188 18.4127 13.0513 18.4069C13.0532 18.2847 13.0501 18.1631 13.0394 18.0415L12.8131 18.0683C12.815 18.179 12.8169 18.2898 12.8194 18.4006L12.6171 18.4566L12.6914 18.5788C12.6728 18.5731 12.645 18.5642 12.6171 18.5553L12.6171 18.5552L12.617 18.5552C12.5891 18.5463 12.5613 18.5374 12.5427 18.5317C12.3454 18.3159 11.9981 18.3496 11.8002 18.547C11.8014 18.3407 11.8008 18.1345 11.7989 17.9282ZM13.2946 18.6253L13.2685 18.7271L13.2423 18.829L13.4478 18.8341C13.5089 18.4999 14.1014 18.5081 14.0699 18.8844C13.9658 18.9339 13.8509 18.9482 13.7366 18.9625C13.5851 18.9815 13.4345 19.0003 13.3116 19.1008C13.1944 19.1962 13.1916 19.3481 13.189 19.4901C13.1884 19.5206 13.1879 19.5506 13.1862 19.5795L13.1194 19.5435L13.0526 19.5076C13.051 19.3605 13.0509 19.2136 13.0507 19.0667C13.0505 18.9198 13.0504 18.773 13.0488 18.6259C13.1307 18.6246 13.2127 18.6246 13.2946 18.6253ZM11.8128 19.3007C11.7617 19.0607 11.7724 18.6985 12.058 18.6195C12.2389 18.5572 12.4292 18.6959 12.4645 18.878C12.5143 19.0982 12.5036 19.3923 12.2994 19.5317C12.1109 19.6527 11.8481 19.519 11.8128 19.3007ZM10.8825 18.6113C10.6392 18.6654 10.5976 18.9703 10.6102 19.1804C10.6102 19.3936 10.7753 19.6215 11.0066 19.5859C11.3136 19.5521 11.3634 19.1734 11.3275 18.9264C11.3205 18.7055 11.093 18.5342 10.8825 18.6113ZM13.651 19.5878C13.4613 19.6177 13.3554 19.3548 13.4998 19.2332C13.614 19.1563 13.7516 19.1472 13.8879 19.1383C13.9455 19.1345 14.0029 19.1307 14.0582 19.1218C14.1049 19.372 13.9044 19.6062 13.651 19.5878Z" fill="white"/>
<path fill-rule="evenodd" clip-rule="evenodd" d="M15.5781 17.9326C15.6575 17.9352 15.737 17.9377 15.817 17.9403C15.8164 18.023 15.8157 18.1058 15.8157 18.1892C15.737 18.1917 15.6582 18.1942 15.5794 18.1968C15.5781 18.1083 15.5781 18.0205 15.5781 17.9326Z" fill="white"/>
<path fill-rule="evenodd" clip-rule="evenodd" d="M9.48535 18.5749C9.65427 18.4012 9.93853 18.3152 10.1528 18.4572C10.3161 18.5539 10.3255 18.7653 10.3451 18.9346C10.3596 19.2045 10.3186 19.4738 10.3331 19.7443C10.2518 19.7437 10.1711 19.7437 10.0904 19.7424C10.0841 19.4279 10.1049 19.1122 10.0785 18.799C10.0507 18.5864 9.77781 18.5756 9.63347 18.6685C9.51623 18.7608 9.49732 18.9168 9.48787 19.0562C9.47715 19.286 9.48787 19.5164 9.48093 19.7462C9.40467 19.7462 9.3284 19.745 9.2515 19.7443C9.25024 19.3032 9.24835 18.862 9.25276 18.4215C9.38072 18.4088 9.52316 18.3929 9.48535 18.5749Z" fill="white"/>
<path fill-rule="evenodd" clip-rule="evenodd" d="M18.0337 18.5857C18.1825 18.4011 18.4624 18.3178 18.6691 18.4533C18.8078 18.5361 18.8437 18.7118 18.8405 18.8633C18.8412 19.1587 18.8405 19.454 18.8374 19.7494C18.7788 19.7481 18.6615 19.7462 18.6023 19.7449C18.5903 19.4114 18.6174 19.0765 18.5878 18.7449C18.5184 18.531 18.1522 18.5972 18.1113 18.8035C18.0319 19.1109 18.0924 19.4356 18.0716 19.7494C18.0155 19.7488 17.9026 19.7481 17.8459 19.7475C17.8056 19.3796 17.9197 18.983 17.7741 18.6348C17.6234 18.5959 17.428 18.6144 17.3663 18.785C17.2717 19.0944 17.341 19.426 17.3095 19.7443C17.2534 19.7462 17.1419 19.75 17.0864 19.7519C17.0744 19.3063 17.0769 18.8595 17.0845 18.4139C17.2238 18.3827 17.3398 18.4298 17.3373 18.5851C17.486 18.3286 17.8888 18.3228 18.0337 18.5857Z" fill="white"/>
<path fill-rule="evenodd" clip-rule="evenodd" d="M15.5832 18.4152C15.6418 18.419 15.7597 18.4279 15.8183 18.4317C15.817 18.8678 15.8164 19.3032 15.817 19.7386C15.7584 19.7424 15.6412 19.7494 15.5825 19.7526C15.5769 19.307 15.5762 18.8608 15.5832 18.4152Z" fill="white"/>
<path fill-rule="evenodd" clip-rule="evenodd" d="M15.93 18.4189C16.0151 18.4202 16.0995 18.4253 16.184 18.4336C16.1909 18.7659 16.1569 19.1013 16.2017 19.4311C16.2168 19.5406 16.3473 19.5444 16.4248 19.5889C16.5578 19.5488 16.704 19.4788 16.7267 19.3229C16.7885 19.0275 16.7425 18.7226 16.7588 18.4234C16.8332 18.4208 16.9082 18.4183 16.9826 18.4164C17.0198 18.8556 16.9889 19.2974 16.9996 19.7379C16.9448 19.7385 16.8351 19.7405 16.7803 19.7411C16.7746 19.7023 16.7626 19.6246 16.757 19.5858C16.5685 19.8818 16.0044 19.8487 15.9476 19.4642C15.9042 19.1185 15.9344 18.7665 15.93 18.4189Z" fill="white"/>
<path fill-rule="evenodd" clip-rule="evenodd" d="M21.3604 4.6328C21.4869 4.53668 21.7348 4.57806 21.8007 4.70091C21.9194 4.89825 21.9055 5.12487 21.8674 5.3343C21.8379 5.48644 21.6438 5.64813 21.4185 5.58066C21.2183 5.47753 21.1966 5.27956 21.1914 5.11532C21.1992 4.95172 21.1992 4.76075 21.3604 4.6328Z" fill="#3B3B3B"/>
</svg>
